<?xml version="1.0" standalone="no"?>
<!DOCTYPE svg PUBLIC "-//W3C//DTD SVG 20010904//EN"
 "http://www.w3.org/TR/2001/REC-SVG-20010904/DTD/svg10.dtd">
<svg version="1.0" xmlns="http://www.w3.org/2000/svg"
 width="703.000000pt" height="385.000000pt" viewBox="0 0 703.000000 385.000000"
 preserveAspectRatio="xMidYMid meet">
<metadata>
Created by potrace 1.13, written by Peter Selinger 2001-2015
</metadata>
<g transform="translate(0.000000,385.000000) scale(0.100000,-0.100000)"
fill="#000000" stroke="none">
<path d="M3230 3778 c-91 -32 -153 -71 -220 -138 -72 -72 -90 -120 -90 -245 0
-105 10 -144 52 -198 l30 -38 -42 -45 c-42 -46 -90 -134 -90 -167 0 -34 -20
-57 -93 -106 -89 -60 -172 -146 -219 -227 -73 -125 -138 -318 -138 -412 0 -40
3 -44 48 -73 26 -16 66 -35 90 -42 23 -6 42 -14 42 -18 0 -4 -17 -13 -37 -19
-89 -29 -138 -115 -138 -240 0 -60 5 -83 23 -113 30 -51 28 -57 -13 -57 -20 0
-49 -7 -64 -14 -42 -22 -89 -81 -95 -118 -12 -76 -16 -286 -7 -311 9 -24 -2
-87 -16 -87 -5 0 -54 57 -66 77 -6 10 0 27 17 52 33 47 35 100 5 127 -12 10
-34 37 -49 59 l-27 40 23 50 c13 28 24 58 24 68 0 10 -27 47 -60 81 -37 39
-60 71 -60 85 0 41 32 81 75 93 80 23 95 66 50 144 l-25 42 20 44 c37 82 22
125 -51 139 -24 4 -104 8 -176 9 l-133 0 -21 41 c-18 35 -19 46 -9 68 26 56
59 158 65 201 5 35 13 49 34 61 54 32 73 112 50 218 -16 76 -32 85 -134 77
-48 -3 -102 -13 -122 -21 -52 -22 -76 -19 -107 14 -50 52 -115 47 -179 -14
-21 -20 -41 -34 -45 -32 -70 36 -79 37 -166 23 -110 -17 -126 -30 -126 -105 1
-73 16 -139 41 -174 11 -15 27 -65 35 -112 12 -63 26 -101 54 -147 50 -82 43
-91 -77 -99 -80 -5 -88 -7 -109 -35 -34 -42 -54 -109 -54 -180 0 -59 -2 -64
-31 -85 -46 -32 -72 -99 -73 -184 0 -75 10 -102 55 -151 28 -29 29 -33 25
-115 l-4 -84 -36 -6 c-43 -7 -71 -31 -96 -80 -23 -45 -35 -145 -21 -181 l10
-26 -78 5 c-104 7 -132 -7 -160 -82 -12 -31 -21 -60 -21 -65 0 -13 -15 -12
-80 5 -100 27 -148 3 -174 -87 -14 -50 -158 -624 -170 -678 -3 -16 2 -38 14
-58 19 -30 23 -32 81 -32 46 0 67 -5 86 -20 37 -29 76 -25 116 10 53 46 85 48
152 10 53 -30 57 -31 80 -16 33 22 48 52 85 181 43 149 70 194 35 58 -28 -108
-14 -194 41 -242 l32 -29 219 -7 c120 -4 1478 -5 3018 -1 l2800 7 47 48 c63
65 76 114 54 200 -9 35 -26 79 -37 98 -37 60 -61 66 -291 72 l-207 6 -46 45
c-25 24 -45 49 -45 55 0 17 51 62 83 74 16 6 42 11 58 11 45 0 98 26 110 54
16 35 5 68 -44 128 -24 29 -46 59 -51 66 -11 18 41 95 109 162 31 31 55 63 55
75 0 11 -11 40 -25 64 -30 52 -31 60 -4 105 29 49 23 95 -16 120 -29 19 -30
23 -31 96 0 56 -5 85 -21 115 -38 74 -50 79 -191 86 -149 8 -144 8 -112 20 14
6 95 15 180 21 165 11 197 18 207 44 14 37 -73 263 -111 289 -41 29 -221 12
-311 -29 -28 -13 -86 -53 -128 -90 l-77 -67 -73 43 c-103 63 -147 78 -227 78
-89 0 -162 -16 -196 -43 -30 -23 -102 -168 -111 -222 -4 -25 -15 -41 -38 -55
-51 -31 -57 -63 -25 -123 28 -52 25 -71 -19 -117 -33 -35 -43 -40 -59 -31 -20
11 -122 179 -122 202 0 25 -51 123 -78 152 -14 15 -33 27 -42 27 -8 0 -37 18
-64 40 -26 22 -54 40 -60 40 -7 0 -23 11 -36 25 -31 33 -83 42 -126 22 -34
-17 -60 -57 -84 -130 -11 -36 -14 -39 -44 -33 -84 15 -136 18 -168 7 -53 -17
-88 -60 -96 -117 -6 -44 -10 -49 -40 -58 -18 -5 -35 -6 -39 -3 -3 4 10 42 30
84 19 43 40 97 46 121 12 41 13 42 55 42 81 0 146 27 202 84 89 91 105 195 49
306 -33 64 -104 126 -155 134 -47 7 -49 15 -15 88 14 29 25 61 25 70 0 26 -80
177 -135 253 -27 38 -73 86 -107 111 -80 59 -224 139 -312 174 -61 24 -78 37
-122 91 -29 34 -71 74 -94 87 -33 20 -41 29 -36 46 30 115 35 154 26 204 -21
117 -90 212 -183 253 -78 34 -219 38 -307 7z m-1760 -1008 c6 -11 18 -20 28
-20 9 0 23 9 30 20 29 47 128 10 188 -71 64 -85 74 -103 73 -129 -1 -22 -3
-21 -18 13 -65 140 -242 177 -364 76 -47 -39 -65 -73 -73 -141 -15 -129 55
-221 185 -243 58 -10 35 -25 -40 -25 -53 0 -57 2 -80 38 -25 38 -45 44 -96 27
-50 -16 -113 133 -99 234 7 53 30 91 54 91 26 0 42 20 42 51 0 31 8 38 75 73
61 31 81 32 95 6z m207 -106 c68 -51 102 -138 84 -219 -21 -95 -96 -144 -217
-145 -57 0 -77 4 -104 23 -78 52 -105 186 -57 278 34 66 89 91 189 87 59 -2
83 -8 105 -24z m2603 -133 c0 -5 -18 -12 -40 -16 -50 -8 -51 -21 -10 -112 17
-36 30 -71 30 -78 0 -11 -75 -79 -108 -99 -7 -4 -29 6 -55 27 -79 65 -102 72
-217 72 -90 0 -112 -4 -152 -23 -61 -31 -114 -83 -141 -140 -21 -44 -24 -46
-87 -59 -65 -13 -79 -9 -80 23 0 19 -65 73 -115 95 -75 34 -193 38 -268 9 -80
-30 -138 -76 -166 -133 -25 -50 -32 -53 -93 -35 l-40 12 7 111 7 112 -33 -4
c-51 -6 -21 9 122 62 239 89 515 155 729 175 124 11 710 12 710 1z m-24 -290
l-109 -109 2 -75 c5 -171 -94 -271 -269 -271 -56 0 -87 6 -125 22 -68 31 -93
57 -127 130 -34 74 -61 90 -120 73 -47 -15 -74 -48 -81 -106 -14 -96 -71 -163
-163 -191 -68 -20 -190 -18 -239 5 -58 26 -119 99 -140 168 -10 32 -22 63 -27
70 -5 7 -38 21 -72 33 -35 11 -72 27 -82 35 -19 14 -19 14 1 15 11 0 47 -7 80
-15 33 -8 65 -14 71 -15 6 0 21 23 34 51 27 57 85 114 138 136 50 21 168 28
221 13 51 -14 131 -83 158 -139 l19 -37 49 18 c28 9 65 17 82 18 30 0 35 5 62
63 15 34 41 74 57 89 66 61 189 91 285 68 43 -10 64 -24 107 -67 29 -29 56
-53 60 -53 4 0 54 41 112 90 58 49 109 90 115 90 5 0 -39 -49 -99 -109z m279
49 c46 -44 65 -88 65 -147 -1 -120 -100 -213 -227 -213 l-28 0 1 182 1 182 34
19 c50 27 111 18 154 -23z m-238 -207 c-3 -82 -13 -176 -21 -211 -20 -78 -74
-197 -126 -277 -36 -55 -49 -66 -168 -133 -71 -40 -160 -97 -199 -126 -57 -43
-74 -51 -89 -43 -11 5 -62 33 -114 63 -52 29 -127 66 -165 82 -95 39 -259 81
-342 88 -37 3 -79 10 -93 15 -31 12 -102 109 -151 206 -38 76 -77 199 -66 209
4 4 20 1 36 -6 23 -9 35 -25 51 -67 61 -163 163 -224 352 -209 94 7 141 29
197 92 38 44 71 120 71 166 0 9 11 25 24 34 43 27 65 15 111 -61 68 -111 128
-145 259 -145 141 0 241 51 285 145 14 29 25 80 30 137 l8 90 49 49 c26 27 52
49 57 49 6 0 7 -60 4 -147z m-2197 -53 l0 -60 -517 2 -518 3 -3 37 c-2 20 2
46 8 58 11 20 17 20 520 20 l510 0 0 -60z m4375 24 c8 -4 22 -19 31 -35 l15
-29 -80 0 c-110 0 -170 -15 -239 -59 -65 -43 -132 -107 -132 -128 0 -18 25
-17 55 3 47 31 376 82 433 67 39 -10 13 -21 -66 -28 -184 -15 -372 -58 -421
-96 -36 -29 -75 -24 -110 14 l-31 32 -167 0 c-149 0 -162 1 -118 12 39 8 43
11 20 12 -47 1 -105 -16 -118 -34 -10 -12 -18 -14 -37 -7 -23 9 -19 11 44 31
96 30 221 42 297 30 67 -11 83 -7 49 11 -62 33 -250 50 -347 31 -24 -5 -43 -6
-43 -4 0 3 8 18 17 33 25 43 84 65 173 65 65 0 85 -5 140 -32 36 -18 89 -52
119 -77 l55 -45 86 82 c95 91 167 135 238 147 61 10 116 12 137 4z m-3780 -75
c12 -19 106 -293 108 -314 2 -24 -47 -44 -108 -44 -118 -1 -219 117 -201 233
9 50 42 111 70 124 28 14 123 15 131 1z m-741 -116 c55 -4 74 -9 66 -17 -7 -7
-181 -12 -545 -14 l-534 -4 -7 -43 c-3 -24 -3 -62 1 -84 l7 -41 451 -1 c463
-1 663 -8 617 -22 -14 -4 -258 -6 -542 -5 -408 2 -520 6 -530 16 -18 18 -18
173 0 195 8 9 28 18 45 20 55 7 890 7 971 0z m36 -119 l0 -66 -512 7 c-282 4
-513 8 -514 9 -7 9 -10 76 -4 87 14 22 93 26 573 28 l457 1 0 -66z m3029 0
c11 -14 30 -51 41 -82 12 -31 42 -95 67 -141 59 -109 60 -171 2 -252 -25 -35
-35 -36 -45 -6 -17 58 -126 327 -134 332 -5 3 -24 -8 -43 -25 -47 -41 -85 -47
-120 -20 -34 27 -34 46 1 64 15 8 50 38 77 66 51 53 101 90 122 90 6 0 21 -12
32 -26z m1427 -155 c14 -15 24 -82 13 -93 -2 -2 -237 -7 -523 -11 l-518 -8 8
24 c4 13 7 43 6 67 l-2 44 500 -4 c446 -3 501 -5 516 -19z m-1792 -4 c11 -8
28 -15 37 -15 9 0 36 -16 59 -35 33 -28 50 -35 83 -35 23 1 53 7 67 15 14 8
28 14 32 15 8 0 32 -70 25 -76 -2 -3 -36 1 -73 8 -41 7 -151 13 -269 13 -187
0 -206 -2 -297 -27 -181 -51 -331 -113 -450 -186 -62 -37 -71 -47 -35 -37 18
5 15 0 -13 -24 l-35 -30 33 -1 c18 0 72 19 126 45 51 25 161 68 244 95 129 42
171 52 276 61 196 16 512 -13 550 -52 14 -13 -7 -12 -99 8 -60 12 -136 16
-300 17 -209 1 -225 -1 -320 -26 -139 -38 -309 -94 -342 -113 -16 -9 -20 -14
-11 -11 10 3 84 25 165 50 206 63 292 76 502 76 176 0 315 -15 396 -43 36 -13
18 -14 -211 -20 -265 -7 -463 -28 -696 -72 -193 -38 -250 -54 -276 -78 -21
-20 -35 -22 -125 -22 -92 0 -104 2 -124 22 -12 12 -39 27 -60 32 -70 20 -267
41 -458 50 l-190 8 175 1 c189 2 333 -13 469 -48 46 -11 85 -19 87 -17 10 10
-165 59 -259 73 -162 25 -525 15 -725 -20 -83 -15 -173 -33 -199 -41 -25 -8
-42 -10 -37 -5 13 13 138 44 284 70 97 18 177 24 360 28 265 5 285 20 29 21
-197 1 -329 -11 -496 -44 -133 -27 -169 -31 -142 -15 28 17 260 59 409 74 175
19 514 18 499 0 -8 -9 0 -11 28 -7 27 3 64 -5 126 -27 49 -17 94 -29 100 -27
18 6 -196 86 -298 112 -126 32 -343 58 -436 53 -83 -5 -82 -6 -43 47 12 17 25
40 28 52 4 12 16 25 27 28 48 16 333 -26 450 -65 84 -28 272 -117 348 -164 63
-39 64 -39 158 30 212 157 409 238 693 287 58 10 136 6 154 -8z m-2012 -34
c123 -8 140 -17 136 -70 -6 -77 -125 -105 -248 -60 -101 37 -126 35 -80 -6 11
-10 20 -25 20 -34 0 -25 -98 -171 -114 -171 -9 0 -17 13 -21 33 -8 46 10 259
24 286 18 32 48 42 116 35 33 -3 108 -9 167 -13z m-572 -81 l0 -60 -514 0
-514 0 -6 26 c-4 14 -2 41 4 60 l12 34 509 0 509 0 0 -60z m1144 -140 c72 -22
27 -33 -116 -28 -163 6 -345 -6 -500 -32 -203 -35 -218 -25 -23 16 110 22 166
28 365 33 l235 6 -132 9 c-159 10 -321 1 -461 -25 -57 -11 -109 -18 -115 -16
-14 5 82 35 151 47 69 13 549 5 596 -10z m3306 -76 l0 -66 -602 7 c-675 8
-628 1 -628 82 l0 43 615 0 615 0 0 -66z m-4492 0 l91 -7 0 -52 0 -53 -137 -7
c-75 -4 -350 -6 -610 -3 -518 5 -492 1 -492 65 0 40 10 46 85 54 83 8 952 10
1063 3z m227 -233 c65 -15 -156 -21 -753 -21 l-613 0 -15 -35 c-7 -19 -14 -62
-14 -95 0 -33 7 -76 14 -95 l15 -35 643 -1 c354 -1 672 -4 708 -8 l65 -7 -45
-7 c-25 -4 -346 -7 -714 -5 l-670 3 -20 35 c-27 45 -28 175 -4 232 14 32 22
37 55 41 67 7 1317 5 1348 -2z m-1535 -26 c22 -12 30 -23 30 -43 0 -34 -162
-674 -184 -726 -11 -28 -20 -37 -32 -32 -8 3 -23 6 -32 6 -44 1 -43 7 47 367
81 318 119 443 136 443 3 0 19 -7 35 -15z m5707 2 c8 -5 8 -16 0 -42 -10 -33
-5 -64 19 -122 5 -10 -184 -13 -925 -13 l-930 0 -16 30 c-17 32 -20 107 -5
130 7 11 36 17 107 21 139 9 1736 6 1750 -4z m-3047 -17 c0 -7 -159 -10 -457
-10 -456 -1 -538 -5 -554 -31 -11 -18 -11 -80 -1 -97 18 -27 87 -32 447 -33
203 -1 417 -4 475 -8 l105 -6 -168 -9 c-93 -5 -315 -7 -495 -4 -383 5 -391 7
-392 89 0 51 19 99 44 109 31 13 996 13 996 0z m445 -9 c-203 -4 -375 -9 -381
-13 -19 -12 -26 -76 -14 -114 l12 -34 411 -1 c227 -1 453 -4 502 -8 l90 -6
-139 -8 c-173 -9 -684 -8 -790 2 -60 5 -81 11 -92 26 -16 22 -19 102 -4 139
l10 26 382 -2 383 -2 -370 -5z m-1585 -90 l0 -79 -32 -5 c-18 -3 -315 -9 -659
-13 l-626 -7 -21 35 c-26 41 -27 66 -8 113 l15 35 665 0 666 0 0 -79z m2164
43 c3 -9 6 -33 6 -55 l0 -39 -397 1 c-397 0 -545 7 -565 27 -6 6 -7 23 -3 41
l7 31 321 3 c177 1 390 3 473 5 131 2 153 0 158 -14z m-1054 -45 l0 -51 -471
4 c-449 4 -472 5 -485 23 -17 23 -18 62 -1 68 6 3 225 6 485 6 l472 1 0 -51z
m-2891 0 c49 -17 52 -34 30 -140 -45 -216 -160 -636 -166 -609 -2 9 30 153 72
320 41 168 78 328 81 356 6 51 6 51 -26 63 -39 13 -77 14 -84 2 -3 -4 -35
-120 -71 -257 -84 -318 -117 -435 -122 -431 -6 7 128 581 158 675 10 29 14 32
53 32 24 0 57 -5 75 -11z m-14 -25 c11 -12 14 -26 9 -52 -11 -62 -151 -632
-156 -637 -3 -3 -22 1 -44 9 -30 10 -38 18 -37 34 4 37 154 624 164 643 12 23
42 24 64 3z m5865 -172 c0 -15 -363 -22 -1066 -22 l-673 0 -16 -30 c-19 -36
-19 -100 -1 -125 14 -19 41 -20 877 -23 475 -1 874 -5 887 -8 13 -2 20 -8 18
-13 -3 -5 -402 -12 -886 -16 -977 -8 -898 -14 -932 62 -24 55 -16 103 24 149
l30 34 869 0 c478 0 869 -4 869 -8z m-1938 -17 c3 -3 0 -23 -6 -45 -8 -34 -7
-45 7 -70 l18 -30 -829 0 c-748 0 -830 2 -836 16 -8 20 -8 82 0 112 l6 22 817
0 c450 0 820 -2 823 -5z m-2024 -12 c111 -3 200 -9 197 -12 -3 -3 -384 -8
-846 -11 -817 -5 -841 -6 -855 -24 -16 -23 -19 -93 -4 -130 l10 -26 533 0
c613 0 1209 -11 1102 -21 -38 -4 -424 -7 -857 -8 l-787 -1 -23 33 c-32 44 -32
118 0 170 l24 37 651 0 c359 0 743 -3 855 -7z m3914 -77 c3 -53 2 -55 -26 -60
-41 -9 -1573 -6 -1621 2 -36 7 -40 10 -43 40 -4 38 10 59 41 65 12 2 387 5
834 6 l811 1 4 -54z m-3777 -37 l0 -46 -200 -7 c-209 -7 -1282 1 -1372 10
l-53 5 0 38 c0 21 3 41 7 44 3 4 369 6 812 5 l805 -3 1 -46z m4340 -158 c68
-14 88 -151 31 -225 l-27 -36 -573 0 c-679 0 -1375 11 -1328 21 19 4 454 10
968 14 l935 8 14 28 c21 39 19 98 -4 135 l-19 31 -182 6 c-101 4 -536 7 -967
7 -515 0 -783 3 -783 10 0 11 1883 12 1935 1z m-2291 -50 l68 -6 2 -57 c1 -40
-3 -59 -12 -63 -8 -3 -425 -5 -928 -5 l-914 0 -16 25 c-15 24 -15 28 1 70 l17
45 856 -1 c471 -1 888 -4 926 -8z m2285 -41 c10 -33 9 -45 -4 -70 l-16 -30
-925 0 -926 0 8 28 c9 33 9 59 -1 90 l-7 22 929 0 930 0 12 -40z m-4257 -29
c-2 -27 1 -58 7 -70 l12 -21 -849 0 -849 0 -11 25 c-15 32 -15 70 -2 96 10 19
30 19 853 19 l842 0 -3 -49z"/>
<path d="M3810 2271 c-43 -14 -104 -48 -127 -73 -90 -96 -64 -279 51 -355 44
-30 55 -33 123 -33 149 0 221 42 256 149 22 68 21 88 -3 155 -25 65 -99 139
-156 155 -44 12 -107 13 -144 2z m143 -43 c54 -16 112 -73 126 -123 17 -64 14
-145 -8 -182 -57 -93 -255 -123 -336 -51 -65 56 -85 193 -42 278 18 38 31 49
77 67 62 25 123 29 183 11z"/>
<path d="M3090 2196 c-89 -23 -157 -81 -180 -152 -17 -51 -8 -160 18 -209 42
-83 103 -115 215 -115 123 0 194 37 239 124 17 33 20 53 16 121 -4 71 -8 87
-36 127 -39 56 -78 86 -139 104 -55 17 -73 17 -133 0z m168 -53 c71 -34 121
-146 107 -239 -8 -58 -59 -116 -121 -140 -54 -20 -173 -16 -221 9 -35 19 -77
83 -88 136 -11 50 3 136 28 172 24 36 72 68 120 80 44 11 133 2 175 -18z"/>
<path d="M4372 2278 c-25 -25 -13 -38 34 -38 l46 0 -26 -31 c-14 -17 -26 -38
-26 -47 0 -9 -3 -27 -6 -39 -9 -34 12 -28 26 7 20 47 87 79 105 49 14 -22 -7
-80 -52 -139 -25 -33 -43 -64 -40 -67 10 -9 65 31 92 67 67 91 49 192 -42 239
-29 15 -96 14 -111 -1z"/>
<path d="M3839 1655 c-1 -3 -3 -9 -4 -15 -1 -5 -3 -15 -4 -21 -1 -14 -101 -57
-175 -74 -72 -17 -213 -20 -253 -4 -24 9 -30 7 -46 -12 -31 -38 -9 -44 158
-44 l154 0 113 58 c62 31 119 57 127 57 11 0 11 3 0 16 -14 17 -68 47 -70 39z"/>
<path d="M2587 1940 c-60 -47 -72 -116 -34 -190 29 -58 77 -90 133 -90 24 0
44 2 44 4 0 2 -25 16 -55 31 -62 30 -105 79 -105 118 0 47 52 45 108 -6 l22
-20 0 25 c0 27 -37 68 -63 68 -33 0 -25 18 14 33 49 19 48 41 -2 45 -24 2 -44
-4 -62 -18z"/>
</g>
</svg>
